<?xml version="1.0" encoding="UTF-8"?>
<svg xmlns="http://www.w3.org/2000/svg" viewBox="0 0 1500 500" width="100%" role="img" aria-label="rsynth execution flow: payload, sign, anchor, verify">
  <defs>
    <style>
      @import url('https://fonts.googleapis.com/css2?family=IBM+Plex+Mono:wght@300;400&amp;display=swap');
      text { font-family: 'IBM Plex Mono', 'Courier New', monospace; fill: #ffffff; }
    </style>
  </defs>

  <rect width="1500" height="500" fill="#000000"/>

  <g stroke="#ffffff" stroke-width="1" stroke-linecap="square" fill="none">
    <line x1="24" y1="24" x2="40" y2="24"/>
    <line x1="24" y1="24" x2="24" y2="40"/>
    <line x1="1476" y1="24" x2="1460" y2="24"/>
    <line x1="1476" y1="24" x2="1476" y2="40"/>
    <line x1="24" y1="476" x2="40" y2="476"/>
    <line x1="24" y1="476" x2="24" y2="460"/>
    <line x1="1476" y1="476" x2="1460" y2="476"/>
    <line x1="1476" y1="476" x2="1476" y2="460"/>
  </g>

  <text x="40" y="44" font-size="11" font-weight="400" letter-spacing="0.08em">// FLOW.V0 — VERIFIABLE EXECUTION</text>
  <text x="1460" y="44" font-size="11" font-weight="400" letter-spacing="0.1em" text-anchor="end">PAYLOAD · SIGN · ANCHOR · VERIFY</text>
  <text x="1460" y="472" font-size="11" font-weight="300" letter-spacing="0.05em" text-anchor="end">$R · rsynth.ai</text>

  <g fill="none" stroke="#ffffff" stroke-width="1">
    <rect x="118" y="180" width="260" height="140" rx="2"/>
    <rect x="453" y="180" width="260" height="140" rx="2"/>
    <rect x="788" y="180" width="260" height="140" rx="2"/>
    <rect x="1123" y="180" width="260" height="140" rx="2"/>
  </g>

  <g text-anchor="middle">
    <text x="248" y="245" font-size="14" font-weight="400" letter-spacing="0.1em">PAYLOAD</text>
    <text x="248" y="270" font-size="11" font-weight="300" fill="#ffffff" fill-opacity="0.5">json record (SCHEMA.md §1)</text>

    <text x="583" y="245" font-size="14" font-weight="400" letter-spacing="0.1em">SIGN</text>
    <text x="583" y="270" font-size="11" font-weight="300" fill="#ffffff" fill-opacity="0.5">eip-191, agent key</text>

    <text x="918" y="245" font-size="14" font-weight="400" letter-spacing="0.1em">ANCHOR</text>
    <text x="918" y="270" font-size="11" font-weight="300" fill="#ffffff" fill-opacity="0.5">keccak256 → ExecutionLog.sol</text>

    <text x="1253" y="245" font-size="14" font-weight="400" letter-spacing="0.1em">VERIFY</text>
    <text x="1253" y="270" font-size="11" font-weight="300" fill="#ffffff" fill-opacity="0.5">recover signer · match hash</text>
  </g>

  <g stroke="#ffffff" stroke-width="1" stroke-linecap="square" fill="none">
    <line x1="384" y1="250" x2="447" y2="250"/>
    <line x1="447" y1="250" x2="441" y2="246"/>
    <line x1="447" y1="250" x2="441" y2="254"/>

    <line x1="719" y1="250" x2="782" y2="250"/>
    <line x1="782" y1="250" x2="776" y2="246"/>
    <line x1="782" y1="250" x2="776" y2="254"/>

    <line x1="1054" y1="250" x2="1117" y2="250"/>
    <line x1="1117" y1="250" x2="1111" y2="246"/>
    <line x1="1117" y1="250" x2="1111" y2="254"/>
  </g>
</svg>
